<?xml version="1.0" encoding="utf-8"?>
<!-- Generator: Adobe Illustrator 16.0.0, SVG Export Plug-In . SVG Version: 6.00 Build 0)  -->
<!DOCTYPE svg PUBLIC "-//W3C//DTD SVG 1.1//EN" "http://www.w3.org/Graphics/SVG/1.1/DTD/svg11.dtd">
<svg version="1.1" id="Layer_1" xmlns="http://www.w3.org/2000/svg" xmlns:xlink="http://www.w3.org/1999/xlink" x="0px" y="0px"
	 width="100px" height="100px" viewBox="626.719 275.226 100 100" enable-background="new 626.719 275.226 100 100"
	 xml:space="preserve">
<g>
	<path fill="#3A559E" d="M680.039,375.226c-17.773,0-35.546,0-53.32,0c0-33.333,0-66.667,0-100c33.333,0,66.667,0,100,0
		c0,33.333,0,66.667,0,100c-10.352,0-20.703,0-31.055,0c0.022-0.42,0.063-0.841,0.063-1.262c0.004-12.043,0.003-24.086,0.003-36.13
		c0-0.402,0-0.805,0-1.293c4.437,0,8.688,0,12.911,0c0.691-5.247,1.37-10.402,2.07-15.719c-5.017,0-9.969,0-14.917,0
		c-0.032-0.281-0.06-0.409-0.061-0.537c-0.015-3.643-0.109-7.289-0.001-10.929c0.044-1.472,0.782-2.752,1.999-3.757
		c1.204-0.996,2.588-1.229,4.028-1.257c2.733-0.052,5.469-0.015,8.202-0.015c0.341,0,0.681,0,1.02,0c0-4.795,0-9.434,0-14.191
		c-0.407,0-0.757,0-1.104,0c-3.516,0-7.031-0.032-10.546,0.015c-1.61,0.021-3.228,0.125-4.827,0.313
		c-4.411,0.522-7.925,2.779-10.657,6.125c-2.672,3.273-4.003,7.103-3.882,11.423c0.109,3.903,0.024,7.811,0.02,11.717
		c0,0.342-0.033,0.683-0.055,1.101c-4.361,0-8.615,0-12.923,0c0,5.273,0,10.463,0,15.756c4.313,0,8.589,0,12.98,0
		c0,0.483,0,0.864,0,1.245c0,12.076,0,24.152,0.002,36.228C679.991,374.448,680.022,374.837,680.039,375.226z"/>
	<path fill="#FEFEFE" d="M680.039,375.226c-0.017-0.389-0.048-0.778-0.048-1.167c-0.003-12.076-0.002-24.151-0.002-36.228
		c0-0.381,0-0.762,0-1.245c-4.391,0-8.668,0-12.98,0c0-5.293,0-10.483,0-15.756c4.308,0,8.562,0,12.922,0
		c0.022-0.417,0.055-0.759,0.055-1.101c0.004-3.906,0.089-7.814-0.021-11.717c-0.121-4.32,1.21-8.149,3.883-11.423
		c2.731-3.346,6.245-5.603,10.657-6.125c1.6-0.189,3.216-0.292,4.826-0.313c3.515-0.046,7.031-0.015,10.546-0.015
		c0.349,0,0.697,0,1.104,0c0,4.757,0,9.396,0,14.191c-0.338,0-0.679,0-1.02,0c-2.733,0-5.469-0.037-8.202,0.016
		c-1.44,0.028-2.824,0.261-4.028,1.256c-1.217,1.006-1.954,2.286-1.998,3.758c-0.108,3.64-0.015,7.286,0,10.929
		c0.001,0.128,0.028,0.256,0.061,0.537c4.948,0,9.901,0,14.918,0c-0.701,5.316-1.38,10.472-2.071,15.719c-4.224,0-8.475,0-12.91,0
		c0,0.488,0,0.891,0,1.293c0,12.043,0,24.087-0.003,36.13c-0.001,0.42-0.042,0.841-0.064,1.262
		C690.456,375.226,685.248,375.226,680.039,375.226z"/>
</g>
</svg>
