<?xml version="1.0" encoding="utf-8"?>
<!-- Generator: Adobe Illustrator 16.0.0, SVG Export Plug-In . SVG Version: 6.00 Build 0)  -->
<!DOCTYPE svg PUBLIC "-//W3C//DTD SVG 1.1//EN" "http://www.w3.org/Graphics/SVG/1.1/DTD/svg11.dtd">
<svg version="1.1" id="Layer_1" xmlns="http://www.w3.org/2000/svg" xmlns:xlink="http://www.w3.org/1999/xlink" x="0px" y="0px"
	 width="360.43px" height="360.43px" viewBox="0 0 360.43 360.43" enable-background="new 0 0 360.43 360.43" xml:space="preserve">
<g>
	<polygon fill="#A12262" points="275.958,119.61 275.95,84.483 149.676,84.477 149.684,84.481 84.473,84.483 84.48,119.61 
		149.673,119.614 149.668,119.617 180.208,119.615 210.755,119.617 210.749,119.614 275.921,119.61 	"/>
	<polygon fill="#A12262" points="275.958,171.848 275.95,136.72 149.676,136.713 149.684,136.718 84.473,136.72 84.48,171.848 
		149.673,171.85 149.668,171.854 180.208,171.852 210.755,171.854 210.749,171.85 275.921,171.848 	"/>
	<polygon fill="#A12262" points="84.472,240.813 84.479,275.939 210.754,275.946 210.746,275.941 275.958,275.939 275.95,240.813 
		210.757,240.809 210.762,240.805 180.222,240.807 149.675,240.805 149.681,240.809 84.509,240.813 	"/>
	<polygon fill="#A12262" points="84.472,188.48 84.479,223.607 210.754,223.614 210.746,223.609 275.958,223.607 275.95,188.48 
		210.757,188.477 210.762,188.473 180.222,188.475 149.675,188.473 149.681,188.477 84.509,188.48 	"/>
</g>
</svg>
