<?xml version="1.0" encoding="utf-8"?>
<!-- Generator: Adobe Illustrator 16.0.0, SVG Export Plug-In . SVG Version: 6.00 Build 0)  -->
<!DOCTYPE svg PUBLIC "-//W3C//DTD SVG 1.1//EN" "http://www.w3.org/Graphics/SVG/1.1/DTD/svg11.dtd">
<svg version="1.1" id="Layer_1" xmlns="http://www.w3.org/2000/svg" xmlns:xlink="http://www.w3.org/1999/xlink" x="0px" y="0px"
	 width="100px" height="100px" viewBox="634.91 333.95 100 100" enable-background="new 634.91 333.95 100 100"
	 xml:space="preserve">
<g>
	<linearGradient id="SVGID_1_" gradientUnits="userSpaceOnUse" x1="691.002" y1="370.5596" x2="663.007" y2="432.5615">
		<stop  offset="0" style="stop-color:#8443AC"/>
		<stop  offset="0.3113" style="stop-color:#C13298"/>
		<stop  offset="0.7" style="stop-color:#F15F40"/>
		<stop  offset="1" style="stop-color:#FBB34A"/>
	</linearGradient>
	<path fill="url(#SVGID_1_)" d="M734.713,367.483c-0.02-3.05-0.479-6.098-0.737-9.146c-1.348-10.066-6.458-17.369-15.862-21.466
		c-4.933-2.149-10.201-2.563-15.485-2.642c-8.442-0.126-16.888-0.24-25.329-0.125c-6.258,0.085-12.583,0.046-18.75,0.943
		c-10.863,1.58-18.281,7.759-21.66,18.401c-1.503,4.733-1.645,9.639-1.715,14.547l0,0c-0.02,8.35-0.04,16.699-0.059,25.05
		c-0.015,1.514-0.082,3.029-0.036,4.542c0.156,5.167,0.075,10.361,1.392,15.421c2.323,8.92,7.683,15.16,16.366,18.438
		c4.621,1.744,9.472,2.132,14.338,2.209c8.491,0.135,16.986,0.251,25.477,0.147c6.183-0.076,12.385-0.278,18.534-0.875
		c4.74-0.46,9.152-2.237,12.89-5.369c3.861-2.873,6.51-6.641,8.246-11.1c1.847-4.739,2.302-9.713,2.345-14.714
		C734.767,390.326,734.784,378.904,734.713,367.483z M637.907,366.667c-0.087,0.042-0.174,0.084-0.261,0.127
		C637.733,366.752,637.82,366.71,637.907,366.667z M725.614,400.728c-0.056,3.278-0.474,6.575-1.026,9.813
		c-0.547,3.21-2.035,6.056-4.411,8.367c-3.124,3.299-7.103,4.859-11.497,5.242c-13.644,1.188-27.321,0.526-40.986,0.539
		c-2.668,0.002-5.392-0.054-7.994-0.564c-6.53-1.283-11.523-4.746-13.735-11.272c-0.833-2.46-1.294-5.115-1.467-7.712
		c-0.322-4.847-0.309-9.715-0.435-14.574c-0.279-0.034-0.553-0.051-0.824-0.051c0.271,0,0.545,0.017,0.824,0.051
		c0.02-3.699,0.021-7.398,0.062-11.097c0.057-5.203,0.141-10.405,0.213-15.607c0,0,0,0,0.001,0c0.451-2.702,0.663-5.47,1.401-8.091
		c1.76-6.246,6.116-10.054,12.329-11.376c3.819-0.813,7.805-1.097,11.722-1.149c10.591-0.139,21.187-0.138,31.777,0.047
		c3.718,0.065,7.509,0.474,11.113,1.355c5.625,1.375,9.378,5.131,11.352,10.606c0.075,0.21,0.194,0.405,0.294,0.607
		c1.405,5.38,1.381,10.892,1.404,16.383C725.77,381.739,725.772,391.235,725.614,400.728z"/>
	<linearGradient id="SVGID_2_" gradientUnits="userSpaceOnUse" x1="691" y1="370.5576" x2="663.0049" y2="432.5598">
		<stop  offset="0" style="stop-color:#8443AC"/>
		<stop  offset="0.3113" style="stop-color:#C13298"/>
		<stop  offset="0.7" style="stop-color:#F15F40"/>
		<stop  offset="1" style="stop-color:#FBB34A"/>
	</linearGradient>
	<path fill="url(#SVGID_2_)" d="M699.4,362.794c-5.515-3.831-11.68-5.074-18.328-4.196c-13.081,1.728-23.105,14.455-21.661,27.571
		l0,0c0.568,7.342,3.867,13.315,9.509,17.875c4.975,4.021,10.815,5.877,17.258,5.538c6.064-0.318,11.405-2.438,15.893-6.587l0,0
		C713.822,392.728,713.891,372.859,699.4,362.794z M680.484,399.899c-6.406-1.915-10.351-6.251-11.819-12.801
		c-0.07-0.311-0.166-0.615-0.249-0.923l0,0c-0.405-5.027,0.861-9.499,4.237-13.351c5.818-6.639,16.441-7.256,23.062-1.387
		c4.21,3.732,6.125,8.364,5.718,13.896c-0.365,4.961-2.739,8.925-6.623,12l0,0C690.411,400.297,685.628,401.439,680.484,399.899z"/>
	<linearGradient id="SVGID_3_" gradientUnits="userSpaceOnUse" x1="703.1328" y1="376.0371" x2="675.1376" y2="438.0396">
		<stop  offset="0" style="stop-color:#8443AC"/>
		<stop  offset="0.3113" style="stop-color:#C13298"/>
		<stop  offset="0.7" style="stop-color:#F15F40"/>
		<stop  offset="1" style="stop-color:#FBB34A"/>
	</linearGradient>
	<path fill="url(#SVGID_3_)" d="M711.528,351.299c-3.259,0.017-5.94,2.699-5.969,5.973c-0.03,3.401,2.579,6.056,5.964,6.069
		c3.339,0.013,6.086-2.699,6.078-6.001C717.594,354.035,714.826,351.282,711.528,351.299z"/>
</g>
</svg>
