<?xml version="1.0" encoding="utf-8"?>
<!-- Generator: Adobe Illustrator 16.0.0, SVG Export Plug-In . SVG Version: 6.00 Build 0)  -->
<!DOCTYPE svg PUBLIC "-//W3C//DTD SVG 1.1//EN" "http://www.w3.org/Graphics/SVG/1.1/DTD/svg11.dtd">
<svg version="1.1" id="Layer_1" xmlns="http://www.w3.org/2000/svg" xmlns:xlink="http://www.w3.org/1999/xlink" x="0px" y="0px"
	 width="1000px" height="360.426px" viewBox="0 0 1000 360.426" enable-background="new 0 0 1000 360.426" xml:space="preserve">
<g>
	<g>
		<g>
			<path fill="#FFFFFF" d="M436.922,138.044v22.434h45.88v16.36h-45.88v50.597H415.67V133.66c0-14.675,9.784-22.939,24.962-22.939
				c16.531,0,34.747,0,49.59,1.519l-1.184,16.024h-42.167C439.452,128.264,436.922,130.793,436.922,138.044z"/>
			<path fill="#FFFFFF" d="M534.123,227.435h-21.082V111.059h21.082V227.435z"/>
			<path fill="#FFFFFF" d="M584.605,200.283c0,7.081,2.53,9.611,9.954,9.611h40.478l0.846,16.36
				c-14.679,1.352-30.531,1.517-46.216,1.517c-19.395,0-26.142-10.116-26.142-24.117v-92.597h21.08V200.283L584.605,200.283z"/>
			<path fill="#FFFFFF" d="M742.291,198.425c0,23.952-10.961,30.361-38.119,30.361c-21.248,0-32.383-0.169-46.381-1.353V111.059
				c12.481-1.181,22.602-1.35,41.157-1.35c29.345,0,39.802,6.411,39.802,30.358c0,16.698-5.733,25.302-19.9,26.65v0.676
				C736.389,168.911,742.291,179.875,742.291,198.425z M678.533,126.745v32.72h21.087c14.167,0,18.892-3.373,18.892-16.697
				c0-12.988-5.063-16.021-20.58-16.021L678.533,126.745L678.533,126.745z M721.207,194.549c0-15.52-5.227-19.568-21.252-19.732
				h-21.422v36.767c6.413,0.168,13.833,0.168,22.099,0.168C716.319,211.75,721.207,208.548,721.207,194.549z"/>
			<path fill="#FFFFFF" d="M832.666,194.549h-43.182l-9.609,32.886h-21.591l34.91-110.81c1.014-3.544,4.051-5.566,7.596-5.566
				h20.572c3.545,0,6.579,2.022,7.593,5.566l34.912,110.81h-21.59L832.666,194.549z M827.604,177.175l-11.637-40.14
				c-0.842-3.208-2.023-6.749-2.53-9.953h-4.552l-2.703,9.953l-11.636,40.14H827.604z"/>
		</g>
	</g>
	<g>
		<g>
			<g>
				
					<rect x="195.329" y="145.327" transform="matrix(-0.7071 0.7071 -0.7071 -0.7071 482.7005 160.6777)" fill="#FFFFFF" width="25.486" height="69.972"/>
			</g>
			<path fill="#D1D1D1" d="M156.303,146.554l18.021-18.021l-0.184-0.187l19.147-19.167c5.85-5.843,10.725-5.843,17.057,0.486
				l40.097,40.098l19.482-16.876c-12.83-16.396-31.654-35.233-48.549-52.121c-14.932-14.93-33.445-15.917-47.891-1.457L84.2,168.603
				l24.833,24.845l47.08-47.077L156.303,146.554z"/>
			<g>
				<g>
					<path fill="#868686" d="M306.926,166.979l-28.507,28.511l-18.57,18.57l-18.029,18.021l-19.153,19.165
						c-5.843,5.839-10.714,5.839-17.055-0.489l-40.09-40.098l-19.488,16.874c12.833,16.401,31.663,35.239,48.555,52.128
						c14.92,14.928,33.435,15.908,47.887,1.449l89.287-89.29L306.926,166.979z"/>
				</g>
			</g>
		</g>
	</g>
</g>
</svg>
