<?xml version="1.0" encoding="utf-8"?>
<!-- Generator: Adobe Illustrator 16.0.0, SVG Export Plug-In . SVG Version: 6.00 Build 0)  -->
<!DOCTYPE svg PUBLIC "-//W3C//DTD SVG 1.1//EN" "http://www.w3.org/Graphics/SVG/1.1/DTD/svg11.dtd">
<svg version="1.1" id="Layer_1" xmlns="http://www.w3.org/2000/svg" xmlns:xlink="http://www.w3.org/1999/xlink" x="0px" y="0px"
	 width="674.418px" height="131.445px" viewBox="0 0 674.418 131.445" enable-background="new 0 0 674.418 131.445"
	 xml:space="preserve">
<g>
	<g>
		<g>
			<path fill="#FFFFFF" d="M239.287,70.825v19.469h-52.842c0.485,5.976,2.428,10.213,5.811,12.713
				c3.378,2.5,8.845,3.745,16.404,3.745h30.627v19.475H205.92c-7.253,0-13.144-0.645-17.695-1.916
				c-4.535-1.287-8.843-3.478-12.929-6.59c-11.038-8.527-16.551-21.264-16.551-38.208c0-11.097,2.924-20.723,8.779-28.888
				c4.022-5.608,8.837-9.602,14.441-11.981c5.611-2.371,12.983-3.561,22.123-3.561h35.198v19.472h-33.367
				c-6.828,0-11.625,1.16-14.395,3.47c-2.784,2.32-4.463,6.586-5.08,12.8H239.287z"/>
			<path fill="#FFFFFF" d="M281.677,35.083h48.358c7.201,0,12.708,0.516,16.546,1.552c3.835,1.035,7.291,2.958,10.331,5.759
				c6.396,5.792,9.601,15.024,9.601,27.701v56.129h-25.049V67.262c0-4.514-1.004-7.755-3.012-9.733
				c-2.017-1.991-5.305-2.974-9.877-2.974h-21.842v71.669h-25.056V35.083L281.677,35.083z"/>
			<path fill="#FFFFFF" d="M481.021,35.083v19.472h-30.074c-9.998,0-16.976,2.256-20.939,6.763
				c-3.713,4.269-5.572,10.728-5.572,19.381c0,9.814,3.048,16.912,9.138,21.302c2.503,1.829,5.21,3.074,8.143,3.748
				c2.92,0.67,7.016,1.003,12.246,1.003h27.062v19.475h-34.292c-9.194,0-16.479-0.928-21.84-2.789s-10.144-5.136-14.354-9.826
				c-7.795-8.721-11.701-19.782-11.701-33.185c0-16.218,4.696-28.34,14.084-36.386c3.714-3.229,8.192-5.524,13.434-6.907
				c5.239-1.364,12.036-2.05,20.378-2.05L481.021,35.083L481.021,35.083z"/>
			<path fill="#FFFFFF" d="M672.356,35.083H554.063v0.32c-15.472,0.372-27.379,5.147-35.669,14.397
				c-7.626,8.472-11.433,19.103-11.433,31.905c0,14.984,3.962,26.482,11.89,34.459c8.644,8.718,20.594,13.08,35.828,13.08
				c14.749,0,26.36-3.903,34.836-11.71c9.256-8.468,13.89-19.832,13.89-34.093c0-11.217-2.61-20.831-7.774-28.888h76.728
				L672.356,35.083L672.356,35.083z M577.719,82.161c0,18.587-7.43,27.88-22.308,27.88c-8.647,0-15.018-3.346-19.101-10.049
				c-2.438-3.962-3.656-9.755-3.656-17.377c0-18.704,7.519-28.059,22.576-28.059C570.217,54.736,577.719,63.938,577.719,82.161z"/>
			<path fill="#FFFFFF" d="M127.114,54.555V35.083h-23.22V1.445H78.843v33.639H2.06v19.472h76.783v37.476
				c0,12.319,2.296,21.092,6.904,26.335c4.599,5.236,12.32,7.859,23.17,7.859h18.197v-19.475h-9.875
				c-5.363,0-9.118-1.493-11.245-4.482c-1.41-2.009-2.101-6.885-2.101-14.625v-33.09H127.114z"/>
		</g>
	</g>
</g>
</svg>
