<?xml version="1.0" encoding="utf-8"?>
<!-- Generator: Adobe Illustrator 16.0.0, SVG Export Plug-In . SVG Version: 6.00 Build 0)  -->
<!DOCTYPE svg PUBLIC "-//W3C//DTD SVG 1.1//EN" "http://www.w3.org/Graphics/SVG/1.1/DTD/svg11.dtd">
<svg version="1.1" id="Layer_1" xmlns="http://www.w3.org/2000/svg" xmlns:xlink="http://www.w3.org/1999/xlink" x="0px" y="0px"
	 width="99.417px" height="99.417px" viewBox="640.188 323.56 99.417 99.417" enable-background="new 640.188 323.56 99.417 99.417"
	 xml:space="preserve">
<g>
	<path fill="#FDFDFC" d="M690.818,324.695c-26.674,0-48.298,21.624-48.298,48.298c0,8.923,2.422,17.279,6.642,24.451h-0.003
		l-8.484,26.115l26.949-8.194c6.884,3.777,14.789,5.927,23.195,5.927c26.675,0,48.299-21.624,48.299-48.299
		C739.117,346.319,717.493,324.695,690.818,324.695z"/>
	<path fill="#4CA735" d="M652.556,411.832c1.619-4.77,3.133-9.305,4.71-13.816c0.299-0.855,0.202-1.459-0.323-2.209
		c-11.293-16.122-8.833-38.814,5.649-52.237c8.568-7.941,18.738-11.75,30.374-11.145c11.441,0.594,21.05,5.321,28.689,13.896
		c5.273,5.921,8.504,12.86,9.652,20.687c1.433,9.771-0.425,18.956-5.721,27.306c-6.609,10.423-16.096,16.738-28.27,18.739
		c-10.025,1.647-19.458-0.269-28.145-5.599c-0.635-0.389-1.158-0.483-1.875-0.251c-4.52,1.462-9.055,2.876-13.585,4.303
		C653.404,411.602,653.09,411.682,652.556,411.832z M675.552,350.992c-1.938-0.389-3.524,0.435-4.914,2.002
		c-3.568,4.023-4.387,8.584-2.876,13.654c0.999,3.35,2.937,6.177,4.918,9.001c6.162,8.783,13.924,15.413,24.397,18.515
		c3.164,0.938,6.214,1.926,9.675,1.254c4.951-0.963,8.707-4.932,8.811-9.96c0.017-0.792-0.055-1.554-0.923-1.962
		c-3.263-1.53-6.5-3.116-9.784-4.599c-1.374-0.62-1.832-0.386-2.766,0.793c-1.129,1.427-2.269,2.847-3.445,4.234
		c-0.817,0.962-1.444,1.069-2.602,0.572c-0.712-0.306-1.42-0.62-2.121-0.949c-6.118-2.864-10.75-7.337-14.195-13.102
		c-0.532-0.89-0.458-1.628,0.273-2.36c0.522-0.524,0.953-1.139,1.474-1.665c1.849-1.863,2.302-3.788,0.957-6.265
		c-1.295-2.385-2.162-5.003-3.226-7.515c-0.478-1.128-1.241-1.829-2.573-1.655C676.334,351.025,676.027,350.992,675.552,350.992z"/>
	<path fill="#FDFDFC" d="M675.552,350.992c0.476,0,0.783,0.033,1.081-0.005c1.331-0.173,2.094,0.527,2.572,1.655
		c1.064,2.512,1.93,5.129,3.226,7.515c1.345,2.477,0.892,4.402-0.957,6.265c-0.521,0.525-0.951,1.141-1.473,1.665
		c-0.731,0.732-0.806,1.471-0.274,2.361c3.446,5.765,8.077,10.237,14.195,13.102c0.701,0.328,1.409,0.644,2.121,0.949
		c1.157,0.497,1.784,0.391,2.602-0.572c1.177-1.387,2.316-2.808,3.445-4.234c0.934-1.179,1.393-1.414,2.767-0.794
		c3.284,1.483,6.521,3.068,9.783,4.6c0.869,0.408,0.94,1.17,0.924,1.962c-0.104,5.028-3.86,8.997-8.812,9.959
		c-3.461,0.673-6.51-0.316-9.675-1.253c-10.473-3.102-18.235-9.732-24.396-18.515c-1.982-2.825-3.92-5.652-4.919-9.001
		c-1.511-5.069-0.692-9.63,2.876-13.654C672.027,351.427,673.614,350.604,675.552,350.992z"/>
</g>
</svg>
