<?xml version="1.0" encoding="utf-8"?>
<!-- Generator: Adobe Illustrator 16.0.0, SVG Export Plug-In . SVG Version: 6.00 Build 0)  -->
<!DOCTYPE svg PUBLIC "-//W3C//DTD SVG 1.1//EN" "http://www.w3.org/Graphics/SVG/1.1/DTD/svg11.dtd">
<svg version="1.1" id="Layer_1" xmlns="http://www.w3.org/2000/svg" xmlns:xlink="http://www.w3.org/1999/xlink" x="0px" y="0px"
	 width="37px" height="37px" viewBox="0 0 37 37" enable-background="new 0 0 37 37" xml:space="preserve">
<g>
	<path fill="#87DC0F" d="M18.5,37C8.299,37,0,28.701,0,18.5S8.299,0,18.5,0S37,8.299,37,18.5S28.701,37,18.5,37z M18.5,2
		C9.402,2,2,9.402,2,18.5S9.402,35,18.5,35S35,27.598,35,18.5S27.598,2,18.5,2z"/>
	<g>
		<g>
			<path fill="#87DC0F" d="M20.149,19.539V33h-5.513V19.539h-2.647v-4.662h2.647c0.021-1.979,0.166-4.502,0.428-5.408
				c0.262-0.907,0.928-1.712,2.006-2.416C18.148,6.35,19.615,6,21.461,6c0.76,0,1.768-0.01,2.974,0.076v4.555
				c-0.81-0.063-1.831,0.035-2.362,0.035c-0.776,0-1.29,0.023-1.543,0.428c-0.254,0.406-0.38,1.066-0.38,1.979v1.805h4.173
				l-0.262,4.662H20.149z"/>
		</g>
	</g>
</g>
</svg>
