<?xml version="1.0" encoding="utf-8"?>
<!-- Generator: Adobe Illustrator 16.0.0, SVG Export Plug-In . SVG Version: 6.00 Build 0)  -->
<!DOCTYPE svg PUBLIC "-//W3C//DTD SVG 1.1//EN" "http://www.w3.org/Graphics/SVG/1.1/DTD/svg11.dtd">
<svg version="1.1" id="Layer_1" xmlns="http://www.w3.org/2000/svg" xmlns:xlink="http://www.w3.org/1999/xlink" x="0px" y="0px"
	 width="37px" height="37px" viewBox="0 0 37 37" enable-background="new 0 0 37 37" xml:space="preserve">
<g>
	<path fill="#A1CFDF" d="M18.5,37.001c-10.201,0-18.501-8.3-18.501-18.501S8.299-0.001,18.5-0.001s18.501,8.3,18.501,18.501
		S28.701,37.001,18.5,37.001z M18.5,2C9.402,2,2,9.402,2,18.5s7.402,16.499,16.5,16.499S34.999,27.598,34.999,18.5S27.598,2,18.5,2z
		"/>
	<g>
		<path fill="#A1CFDF" d="M20.149,19.539V33h-5.513V19.539h-2.647v-4.662h2.647c0.021-1.979,0.166-4.502,0.428-5.408
			c0.262-0.907,0.928-1.712,2.006-2.416C18.148,6.35,19.615,6,21.461,6c0.76,0,1.768-0.01,2.974,0.076v4.555
			c-0.81-0.063-1.831,0.035-2.362,0.035c-0.776,0-1.29,0.023-1.543,0.428c-0.254,0.406-0.38,1.066-0.38,1.979v1.805h4.173
			l-0.262,4.662H20.149z"/>
	</g>
</g>
</svg>
