<?xml version="1.0" encoding="utf-8"?>
<!-- Generator: Adobe Illustrator 16.0.0, SVG Export Plug-In . SVG Version: 6.00 Build 0)  -->
<!DOCTYPE svg PUBLIC "-//W3C//DTD SVG 1.1//EN" "http://www.w3.org/Graphics/SVG/1.1/DTD/svg11.dtd">
<svg version="1.1" id="Layer_1" xmlns="http://www.w3.org/2000/svg" xmlns:xlink="http://www.w3.org/1999/xlink" x="0px" y="0px"
	 width="37px" height="37px" viewBox="0 0 37 37" enable-background="new 0 0 37 37" xml:space="preserve">
<g>
	<path fill="#F399C0" d="M18.5,37C8.299,37,0,28.701,0,18.5C0,8.298,8.299,0,18.5,0c10.2,0,18.499,8.299,18.499,18.5
		C36.999,28.701,28.7,37,18.5,37z M18.5,2C9.402,2,2,9.401,2,18.5S9.402,35,18.5,35s16.499-7.402,16.499-16.5S27.598,2,18.5,2z"/>
	<path fill="#F399C0" d="M26.292,7.5H10.704c-1.545,0-2.798,1.253-2.798,2.796v16.408c0,1.545,1.253,2.797,2.798,2.797h15.588
		c1.546,0,2.801-1.252,2.801-2.797V10.295C29.093,8.752,27.838,7.5,26.292,7.5z M18.499,14.413c2.268,0,4.102,1.838,4.102,4.104
		c0,2.263-1.834,4.101-4.102,4.101c-2.266,0-4.1-1.838-4.1-4.101C14.399,16.25,16.233,14.413,18.499,14.413z M26.796,26.098
		c0,0.387-0.313,0.699-0.699,0.699H10.904c-0.388,0-0.703-0.313-0.703-0.699v-9.369h1.971c-0.157,0.567-0.245,1.166-0.245,1.787
		c0,3.628,2.942,6.572,6.572,6.572c3.629,0,6.571-2.943,6.571-6.572c0-0.621-0.087-1.22-0.243-1.787h1.969V26.098z M26.796,13.721
		c0,0.221-0.18,0.399-0.4,0.399h-3.116c-0.223,0-0.399-0.179-0.399-0.399v-3.119c0-0.219,0.177-0.398,0.399-0.398h3.116
		c0.221,0,0.4,0.18,0.4,0.398V13.721z"/>
</g>
</svg>
