<?xml version="1.0" encoding="utf-8"?>
<!-- Generator: Adobe Illustrator 16.0.0, SVG Export Plug-In . SVG Version: 6.00 Build 0)  -->
<!DOCTYPE svg PUBLIC "-//W3C//DTD SVG 1.1//EN" "http://www.w3.org/Graphics/SVG/1.1/DTD/svg11.dtd">
<svg version="1.1" id="Layer_1" xmlns="http://www.w3.org/2000/svg" xmlns:xlink="http://www.w3.org/1999/xlink" x="0px" y="0px"
	 width="37px" height="37px" viewBox="0 0 37 37" enable-background="new 0 0 37 37" xml:space="preserve">
<g>
	<path fill="#87DC0F" d="M18.5,37C8.299,37,0,28.701,0,18.5S8.299,0,18.5,0S37,8.299,37,18.5S28.701,37,18.5,37z M18.5,2
		C9.402,2,2,9.402,2,18.5S9.402,35,18.5,35S35,27.598,35,18.5S27.598,2,18.5,2z"/>
	<path fill="#87DC0F" d="M13.222,28.49V13.658h-4.93V28.49H13.222L13.222,28.49z M10.758,11.634c1.719,0,2.789-1.139,2.789-2.562
		c-0.032-1.456-1.07-2.563-2.756-2.563c-1.688,0-2.789,1.107-2.789,2.563c0,1.424,1.069,2.563,2.724,2.563H10.758L10.758,11.634z
		 M15.951,28.49h4.93v-8.281c0-0.443,0.031-0.887,0.162-1.203c0.355-0.887,1.167-1.803,2.529-1.803c1.783,0,2.497,1.359,2.497,3.354
		v7.934h4.929v-8.504c0-4.556-2.432-6.676-5.675-6.676c-2.659,0-3.827,1.486-4.476,2.499h0.033v-2.151h-4.93
		C16.016,15.051,15.95,28.49,15.951,28.49L15.951,28.49z"/>
</g>
</svg>
