<?xml version="1.0" encoding="utf-8"?>
<!-- Generator: Adobe Illustrator 16.0.0, SVG Export Plug-In . SVG Version: 6.00 Build 0)  -->
<!DOCTYPE svg PUBLIC "-//W3C//DTD SVG 1.1//EN" "http://www.w3.org/Graphics/SVG/1.1/DTD/svg11.dtd">
<svg version="1.1" id="Layer_1" xmlns="http://www.w3.org/2000/svg" xmlns:xlink="http://www.w3.org/1999/xlink" x="0px" y="0px"
	 width="37px" height="37px" viewBox="0 0 37 37" enable-background="new 0 0 37 37" xml:space="preserve">
<g>
	<path fill="#A1CFDF" d="M0.127,21c0.242,2,0.858,4,1.764,6h33.219c0.906-2,1.521-4,1.764-6H0.127z"/>
	<path fill="#A1CFDF" d="M2.293,10c-1.011,1-1.702,3-2.042,6h36.498c-0.34-3-1.031-5-2.042-6H2.293z"/>
	<path fill="#A1CFDF" d="M5.447,32c3.348,3,7.963,5.404,13.053,5.404S28.205,35,31.553,32H5.447z"/>
	<path fill="#A1CFDF" d="M30.664,5C27.408,2,23.158,0.404,18.5,0.404S9.592,2,6.336,5H30.664z"/>
</g>
</svg>
