<?xml version="1.0" encoding="utf-8"?>
<!-- Generator: Adobe Illustrator 16.0.0, SVG Export Plug-In . SVG Version: 6.00 Build 0)  -->
<!DOCTYPE svg PUBLIC "-//W3C//DTD SVG 1.1//EN" "http://www.w3.org/Graphics/SVG/1.1/DTD/svg11.dtd">
<svg version="1.1" id="Layer_1" xmlns="http://www.w3.org/2000/svg" xmlns:xlink="http://www.w3.org/1999/xlink" x="0px" y="0px"
	 width="37px" height="37px" viewBox="0 0 37 37" enable-background="new 0 0 37 37" xml:space="preserve">
<g>
	<path fill="#A1CFDF" d="M18.5,37.001C8.299,37.001,0,28.701,0,18.5c0-10.201,8.3-18.5,18.501-18.5c10.201,0,18.5,8.299,18.5,18.5
		C37,28.701,28.701,37.001,18.5,37.001z M18.5,2C9.403,2,2,9.402,2,18.5C2,27.598,9.403,35,18.5,35C27.598,35,35,27.598,35,18.5
		C35,9.402,27.598,2,18.5,2z"/>
	<path fill="#A1CFDF" d="M8.053,14.691c0-1.134,0.236-2.26,0.715-3.375c0.479-1.114,1.16-2.151,2.051-3.104
		c0.893-0.953,2.061-1.728,3.51-2.321C15.778,5.296,17.385,5,19.146,5c2.861,0,5.211,0.883,7.047,2.646
		c1.834,1.763,2.752,3.842,2.752,6.235c0,3.078-0.777,5.621-2.334,7.625c-1.559,2.006-3.568,3.01-6.033,3.01
		c-0.811,0-1.572-0.188-2.281-0.566c-0.711-0.377-1.209-0.836-1.498-1.377l-1.08,4.266c-0.09,0.344-0.209,0.688-0.352,1.04
		c-0.143,0.35-0.301,0.688-0.473,1.012c-0.17,0.324-0.342,0.629-0.512,0.918s-0.344,0.559-0.514,0.811
		c-0.17,0.25-0.318,0.463-0.445,0.633s-0.242,0.318-0.352,0.445l-0.16,0.217c-0.055,0.072-0.127,0.1-0.217,0.08
		c-0.09-0.018-0.143-0.072-0.162-0.162c0-0.018-0.014-0.143-0.041-0.377s-0.053-0.48-0.08-0.742s-0.055-0.6-0.082-1.012
		c-0.025-0.414-0.033-0.816-0.025-1.201c0.008-0.387,0.035-0.816,0.08-1.282c0.047-0.469,0.113-0.9,0.203-1.297
		c0.197-0.844,0.863-3.662,1.996-8.449c-0.143-0.289-0.262-0.635-0.35-1.039c-0.09-0.405-0.135-0.734-0.135-0.985l-0.027-0.405
		c0-1.152,0.291-2.111,0.877-2.875s1.291-1.147,2.119-1.147c0.666,0,1.182,0.222,1.553,0.662c0.369,0.439,0.552,0.993,0.552,1.66
		c0,0.413-0.076,0.923-0.23,1.524c-0.152,0.603-0.355,1.296-0.605,2.079c-0.252,0.782-0.432,1.417-0.541,1.903
		c-0.18,0.81-0.021,1.511,0.473,2.105s1.156,0.891,1.984,0.891c1.422,0,2.598-0.805,3.523-2.416
		c0.926-1.611,1.389-3.558,1.389-5.845c0-1.746-0.566-3.172-1.699-4.278c-1.135-1.106-2.719-1.66-4.751-1.66
		c-2.268,0-4.107,0.729-5.52,2.187s-2.119,3.204-2.119,5.237c0,1.206,0.342,2.222,1.025,3.05c0.234,0.271,0.305,0.559,0.215,0.864
		c-0.033,0.089-0.088,0.297-0.16,0.621c-0.074,0.323-0.127,0.531-0.162,0.621c-0.035,0.197-0.127,0.33-0.27,0.391
		c-0.145,0.063-0.307,0.061-0.486-0.014c-1.061-0.432-1.857-1.173-2.389-2.226C8.317,17.323,8.053,16.094,8.053,14.691z"/>
</g>
</svg>
