<?xml version="1.0" encoding="utf-8"?>
<!-- Generator: Adobe Illustrator 16.0.0, SVG Export Plug-In . SVG Version: 6.00 Build 0)  -->
<!DOCTYPE svg PUBLIC "-//W3C//DTD SVG 1.1//EN" "http://www.w3.org/Graphics/SVG/1.1/DTD/svg11.dtd">
<svg version="1.1" id="Layer_1" xmlns="http://www.w3.org/2000/svg" xmlns:xlink="http://www.w3.org/1999/xlink" x="0px" y="0px"
	 width="500px" height="148.276px" viewBox="0 0 500 148.276" enable-background="new 0 0 500 148.276" xml:space="preserve">
<g>
	<g>
		<path fill="#FFFFFF" d="M177.402,52.508v14.434h-39.177c0.36,4.431,1.801,7.572,4.309,9.427c2.505,1.853,6.558,2.775,12.161,2.775
			h22.707v14.437h-24.738c-5.377,0-9.744-0.477-13.118-1.42c-3.362-0.955-6.556-2.578-9.585-4.885
			c-8.184-6.321-12.271-15.764-12.271-28.326c0-8.227,2.168-15.364,6.509-21.417c2.981-4.158,6.551-7.119,10.706-8.883
			c4.16-1.758,9.626-2.64,16.401-2.64h26.096v14.436h-24.738c-5.062,0-8.618,0.86-10.672,2.573c-2.063,1.72-3.309,4.883-3.767,9.489
			H177.402z"/>
		<path fill="#FFFFFF" d="M208.83,26.01h35.851c5.339,0,9.423,0.383,12.268,1.151c2.844,0.768,5.405,2.193,7.659,4.269
			c4.743,4.294,7.118,11.139,7.118,20.537v41.614h-18.571V49.866c0-3.346-0.744-5.749-2.233-7.216
			c-1.494-1.476-3.932-2.205-7.322-2.205h-16.193v53.135H208.83V26.01z"/>
		<path fill="#FFFFFF" d="M356.619,26.01v14.436h-22.296c-7.412,0-12.585,1.672-15.524,5.014c-2.752,3.165-4.131,7.953-4.131,14.368
			c0,7.276,2.259,12.538,6.774,15.793c1.855,1.356,3.862,2.279,6.036,2.779c2.165,0.496,5.2,0.743,9.079,0.743h20.062v14.437
			h-25.423c-6.816,0-12.217-0.688-16.191-2.067c-3.975-1.38-7.52-3.807-10.642-7.285c-5.779-6.465-8.675-14.666-8.675-24.602
			c0-12.024,3.481-21.011,10.441-26.977c2.754-2.394,6.074-4.096,9.959-5.12c3.885-1.012,8.924-1.521,15.107-1.521H356.619z"/>
		<path fill="#FFFFFF" d="M498.472,26.01h-87.7v0.238c-11.47,0.276-20.298,3.816-26.443,10.674
			c-5.654,6.281-8.477,14.163-8.477,23.654c0,11.109,2.938,19.633,8.814,25.548c6.408,6.463,15.268,9.698,26.563,9.698
			c10.935,0,19.543-2.895,25.827-8.682c6.862-6.277,10.296-14.703,10.296-25.275c0-8.316-1.935-15.444-5.763-21.417h56.883V26.01z
			 M428.309,60.912c0,13.78-5.508,20.67-16.538,20.67c-6.411,0-11.133-2.48-14.16-7.45c-1.808-2.938-2.711-7.232-2.711-12.884
			c0-13.866,5.574-20.802,16.738-20.802C422.747,40.58,428.309,47.402,428.309,60.912z"/>
		<path fill="#FFFFFF" d="M94.24,40.446V26.01H77.025V1.071H58.452V26.01H1.527v14.436h56.925V68.23
			c0,9.133,1.702,15.637,5.118,19.523c3.41,3.884,9.135,5.827,17.178,5.827H94.24V79.144h-7.321c-3.976,0-6.759-1.106-8.337-3.323
			c-1.045-1.489-1.557-5.104-1.557-10.843V40.446H94.24z"/>
	</g>
	<defs>
		<filter id="Adobe_OpacityMaskFilter" filterUnits="userSpaceOnUse" x="1.527" y="93.225" width="496.944" height="53.979">
			
				<feColorMatrix  type="matrix" values="-1 0 0 0 1  0 -1 0 0 1  0 0 -1 0 1  0 0 0 1 0" color-interpolation-filters="sRGB" result="source"/>
		</filter>
	</defs>
	<mask maskUnits="userSpaceOnUse" x="1.527" y="93.225" width="496.944" height="53.979" id="SVGID_1_">
		<g filter="url(#Adobe_OpacityMaskFilter)">
			<g>
				<linearGradient id="SVGID_2_" gradientUnits="userSpaceOnUse" x1="147.5469" y1="132.9966" x2="147.5469" y2="94.5024">
					<stop  offset="0.27" style="stop-color:#FFFFFF"/>
					<stop  offset="0.3885" style="stop-color:#FCFCFC"/>
					<stop  offset="0.4838" style="stop-color:#F2F2F2"/>
					<stop  offset="0.5709" style="stop-color:#E1E1E1"/>
					<stop  offset="0.6532" style="stop-color:#C9C9C9"/>
					<stop  offset="0.7322" style="stop-color:#AAAAAA"/>
					<stop  offset="0.8087" style="stop-color:#848484"/>
					<stop  offset="0.8831" style="stop-color:#585858"/>
					<stop  offset="0.9541" style="stop-color:#252525"/>
					<stop  offset="1" style="stop-color:#000000"/>
				</linearGradient>
				<path fill="url(#SVGID_2_)" d="M138.226,117.901c0.458,2.623,1.703,4.426,3.767,5.406c2.054,0.975,5.61,1.465,10.672,1.465
					h24.738v8.225h-26.096c-6.775,0-12.241-0.504-16.401-1.502c-4.155-1.006-7.725-2.693-10.706-5.063
					c-4.341-3.447-6.509-7.514-6.509-12.201c0-7.156,4.087-12.535,12.271-16.137c3.029-1.314,6.223-2.24,9.585-2.783
					c3.374-0.537,7.741-0.809,13.118-0.809h24.738v8.225h-22.707c-5.604,0-9.656,0.525-12.161,1.582
					c-2.508,1.055-3.948,2.846-4.309,5.369h39.177v8.223H138.226z"/>
				<linearGradient id="SVGID_3_" gradientUnits="userSpaceOnUse" x1="240.2773" y1="132.9966" x2="240.2773" y2="94.5024">
					<stop  offset="0.27" style="stop-color:#FFFFFF"/>
					<stop  offset="0.3885" style="stop-color:#FCFCFC"/>
					<stop  offset="0.4838" style="stop-color:#F2F2F2"/>
					<stop  offset="0.5709" style="stop-color:#E1E1E1"/>
					<stop  offset="0.6532" style="stop-color:#C9C9C9"/>
					<stop  offset="0.7322" style="stop-color:#AAAAAA"/>
					<stop  offset="0.8087" style="stop-color:#848484"/>
					<stop  offset="0.8831" style="stop-color:#585858"/>
					<stop  offset="0.9541" style="stop-color:#252525"/>
					<stop  offset="1" style="stop-color:#000000"/>
				</linearGradient>
				<path fill="url(#SVGID_3_)" d="M208.83,94.502h18.575v30.27h16.193c3.391,0,5.828-0.414,7.322-1.256
					c1.489-0.834,2.233-2.205,2.233-4.109V94.502h18.571v23.707c0,5.355-2.375,9.254-7.118,11.699
					c-2.254,1.184-4.815,1.996-7.659,2.432c-2.845,0.439-6.929,0.656-12.268,0.656H208.83V94.502z"/>
				<linearGradient id="SVGID_4_" gradientUnits="userSpaceOnUse" x1="326.1543" y1="132.9966" x2="326.1543" y2="94.5024">
					<stop  offset="0.27" style="stop-color:#FFFFFF"/>
					<stop  offset="0.3885" style="stop-color:#FCFCFC"/>
					<stop  offset="0.4838" style="stop-color:#F2F2F2"/>
					<stop  offset="0.5709" style="stop-color:#E1E1E1"/>
					<stop  offset="0.6532" style="stop-color:#C9C9C9"/>
					<stop  offset="0.7322" style="stop-color:#AAAAAA"/>
					<stop  offset="0.8087" style="stop-color:#848484"/>
					<stop  offset="0.8831" style="stop-color:#585858"/>
					<stop  offset="0.9541" style="stop-color:#252525"/>
					<stop  offset="1" style="stop-color:#000000"/>
				</linearGradient>
				<path fill="url(#SVGID_4_)" d="M331.196,132.997c-6.184,0-11.223-0.289-15.107-0.865c-3.885-0.586-7.205-1.553-9.959-2.918
					c-6.96-3.398-10.441-8.518-10.441-15.367c0-5.66,2.896-10.334,8.675-14.018c3.122-1.98,6.667-3.363,10.642-4.15
					c3.975-0.783,9.375-1.176,16.191-1.176h25.423v8.225h-20.062c-3.879,0-6.914,0.141-9.079,0.424
					c-2.174,0.283-4.181,0.811-6.036,1.582c-4.516,1.854-6.774,4.852-6.774,8.998c0,3.654,1.379,6.383,4.131,8.186
					c2.939,1.904,8.112,2.855,15.524,2.855h22.296v8.225H331.196z"/>
				<linearGradient id="SVGID_5_" gradientUnits="userSpaceOnUse" x1="437.1621" y1="132.9966" x2="437.1621" y2="93.2251">
					<stop  offset="0.27" style="stop-color:#FFFFFF"/>
					<stop  offset="0.3885" style="stop-color:#FCFCFC"/>
					<stop  offset="0.4838" style="stop-color:#F2F2F2"/>
					<stop  offset="0.5709" style="stop-color:#E1E1E1"/>
					<stop  offset="0.6532" style="stop-color:#C9C9C9"/>
					<stop  offset="0.7322" style="stop-color:#AAAAAA"/>
					<stop  offset="0.8087" style="stop-color:#848484"/>
					<stop  offset="0.8831" style="stop-color:#585858"/>
					<stop  offset="0.9541" style="stop-color:#252525"/>
					<stop  offset="1" style="stop-color:#000000"/>
				</linearGradient>
				<path fill="url(#SVGID_5_)" d="M498.472,124.772h-56.883c3.828-3.402,5.763-7.463,5.763-12.201
					c0-6.023-3.434-10.822-10.296-14.4c-6.284-3.295-14.893-4.945-25.827-4.945c-11.295,0-20.154,1.844-26.563,5.525
					c-5.877,3.371-8.814,8.225-8.814,14.555c0,5.408,2.822,9.898,8.477,13.475c6.146,3.906,14.974,5.926,26.443,6.082v0.135h87.7
					V124.772z M411.638,124.772c-11.164,0-16.738-3.949-16.738-11.85c0-3.221,0.903-5.666,2.711-7.34
					c3.027-2.832,7.749-4.244,14.16-4.244c11.03,0,16.538,3.924,16.538,11.775C428.309,120.811,422.747,124.696,411.638,124.772z"/>
				<linearGradient id="SVGID_6_" gradientUnits="userSpaceOnUse" x1="47.8838" y1="147.2036" x2="47.8838" y2="94.5024">
					<stop  offset="0.27" style="stop-color:#FFFFFF"/>
					<stop  offset="0.3885" style="stop-color:#FCFCFC"/>
					<stop  offset="0.4838" style="stop-color:#F2F2F2"/>
					<stop  offset="0.5709" style="stop-color:#E1E1E1"/>
					<stop  offset="0.6532" style="stop-color:#C9C9C9"/>
					<stop  offset="0.7322" style="stop-color:#AAAAAA"/>
					<stop  offset="0.8087" style="stop-color:#848484"/>
					<stop  offset="0.8831" style="stop-color:#585858"/>
					<stop  offset="0.9541" style="stop-color:#252525"/>
					<stop  offset="1" style="stop-color:#000000"/>
				</linearGradient>
				<path fill="url(#SVGID_6_)" d="M94.24,124.772v8.225H77.025v14.207H58.452v-14.207H1.527v-8.225h56.925v-15.828
					c0-5.201,1.702-8.908,5.118-11.123c3.41-2.211,9.135-3.318,17.178-3.318H94.24v8.225h-7.321c-3.976,0-6.759,0.633-8.337,1.893
					c-1.045,0.85-1.557,2.91-1.557,6.178v13.975H94.24z"/>
			</g>
		</g>
	</mask>
	<g opacity="0.77" mask="url(#SVGID_1_)">
		<path fill="#DEDEDE" d="M138.226,117.901c0.458,2.623,1.703,4.426,3.767,5.406c2.054,0.975,5.61,1.465,10.672,1.465h24.738v8.225
			h-26.096c-6.775,0-12.241-0.504-16.401-1.502c-4.155-1.006-7.725-2.693-10.706-5.063c-4.341-3.447-6.509-7.514-6.509-12.201
			c0-7.156,4.087-12.535,12.271-16.137c3.029-1.314,6.223-2.24,9.585-2.783c3.374-0.537,7.741-0.809,13.118-0.809h24.738v8.225
			h-22.707c-5.604,0-9.656,0.525-12.161,1.582c-2.508,1.055-3.948,2.846-4.309,5.369h39.177v8.223H138.226z"/>
		<path fill="#DEDEDE" d="M208.83,94.502h18.575v30.27h16.193c3.391,0,5.828-0.414,7.322-1.256c1.489-0.834,2.233-2.205,2.233-4.109
			V94.502h18.571v23.707c0,5.355-2.375,9.254-7.118,11.699c-2.254,1.184-4.815,1.996-7.659,2.432
			c-2.845,0.439-6.929,0.656-12.268,0.656H208.83V94.502z"/>
		<path fill="#DEDEDE" d="M331.196,132.997c-6.184,0-11.223-0.289-15.107-0.865c-3.885-0.586-7.205-1.553-9.959-2.918
			c-6.96-3.398-10.441-8.518-10.441-15.367c0-5.66,2.896-10.334,8.675-14.018c3.122-1.98,6.667-3.363,10.642-4.15
			c3.975-0.783,9.375-1.176,16.191-1.176h25.423v8.225h-20.062c-3.879,0-6.914,0.141-9.079,0.424
			c-2.174,0.283-4.181,0.811-6.036,1.582c-4.516,1.854-6.774,4.852-6.774,8.998c0,3.654,1.379,6.383,4.131,8.186
			c2.939,1.904,8.112,2.855,15.524,2.855h22.296v8.225H331.196z"/>
		<path fill="#DEDEDE" d="M498.472,124.772h-56.883c3.828-3.402,5.763-7.463,5.763-12.201c0-6.023-3.434-10.822-10.296-14.4
			c-6.284-3.295-14.893-4.945-25.827-4.945c-11.295,0-20.154,1.844-26.563,5.525c-5.877,3.371-8.814,8.225-8.814,14.555
			c0,5.408,2.822,9.898,8.477,13.475c6.146,3.906,14.974,5.926,26.443,6.082v0.135h87.7V124.772z M411.638,124.772
			c-11.164,0-16.738-3.949-16.738-11.85c0-3.221,0.903-5.666,2.711-7.34c3.027-2.832,7.749-4.244,14.16-4.244
			c11.03,0,16.538,3.924,16.538,11.775C428.309,120.811,422.747,124.696,411.638,124.772z"/>
		<path fill="#DEDEDE" d="M94.24,124.772v8.225H77.025v14.207H58.452v-14.207H1.527v-8.225h56.925v-15.828
			c0-5.201,1.702-8.908,5.118-11.123c3.41-2.211,9.135-3.318,17.178-3.318H94.24v8.225h-7.321c-3.976,0-6.759,0.633-8.337,1.893
			c-1.045,0.85-1.557,2.91-1.557,6.178v13.975H94.24z"/>
	</g>
</g>
<g>
	<g>
		<path fill="#2A2D41" d="M-341.287,52.508v14.434h-39.177c0.36,4.431,1.801,7.572,4.309,9.427
			c2.505,1.853,6.558,2.775,12.161,2.775h22.707v14.437h-24.738c-5.377,0-9.744-0.477-13.118-1.42
			c-3.362-0.955-6.556-2.578-9.585-4.885c-8.184-6.321-12.271-15.764-12.271-28.326c0-8.227,2.168-15.364,6.509-21.417
			c2.981-4.158,6.551-7.119,10.706-8.883c4.16-1.758,9.626-2.64,16.401-2.64h26.096v14.436h-24.738
			c-5.062,0-8.618,0.86-10.672,2.573c-2.063,1.72-3.309,4.883-3.767,9.489H-341.287z"/>
		<path fill="#2A2D41" d="M-309.859,26.01h35.851c5.339,0,9.423,0.383,12.268,1.151c2.844,0.768,5.405,2.193,7.659,4.269
			c4.743,4.294,7.118,11.139,7.118,20.537v41.614h-18.571V49.866c0-3.346-0.744-5.749-2.233-7.216
			c-1.494-1.476-3.932-2.205-7.322-2.205h-16.193v53.135h-18.575V26.01z"/>
		<path fill="#2A2D41" d="M-162.07,26.01v14.436h-22.296c-7.412,0-12.585,1.672-15.524,5.014c-2.752,3.165-4.131,7.953-4.131,14.368
			c0,7.276,2.259,12.538,6.774,15.793c1.855,1.356,3.862,2.279,6.036,2.779c2.165,0.496,5.2,0.743,9.079,0.743h20.062v14.437
			h-25.423c-6.816,0-12.217-0.688-16.191-2.067c-3.975-1.38-7.52-3.807-10.642-7.285c-5.779-6.465-8.675-14.666-8.675-24.602
			c0-12.024,3.481-21.011,10.441-26.977c2.754-2.394,6.074-4.096,9.959-5.12c3.885-1.012,8.924-1.521,15.107-1.521H-162.07z"/>
		<path fill="#2A2D41" d="M-20.217,26.01h-87.701v0.238c-11.47,0.276-20.298,3.816-26.443,10.674
			c-5.654,6.281-8.477,14.163-8.477,23.654c0,11.109,2.938,19.633,8.814,25.548c6.408,6.463,15.268,9.698,26.563,9.698
			c10.935,0,19.543-2.895,25.827-8.682c6.862-6.277,10.296-14.703,10.296-25.275c0-8.316-1.935-15.444-5.763-21.417h56.884V26.01z
			 M-90.381,60.912c0,13.78-5.508,20.67-16.538,20.67c-6.411,0-11.133-2.48-14.16-7.45c-1.808-2.938-2.711-7.232-2.711-12.884
			c0-13.866,5.574-20.802,16.738-20.802C-95.942,40.58-90.381,47.402-90.381,60.912z"/>
		<path fill="#2A2D41" d="M-424.449,40.446V26.01h-17.215V1.071h-18.573V26.01h-56.925v14.436h56.925V68.23
			c0,9.133,1.702,15.637,5.118,19.523c3.41,3.884,9.135,5.827,17.178,5.827h13.492V79.144h-7.321c-3.976,0-6.759-1.106-8.337-3.323
			c-1.045-1.489-1.557-5.104-1.557-10.843V40.446H-424.449z"/>
	</g>
	<defs>
		<filter id="Adobe_OpacityMaskFilter_1_" filterUnits="userSpaceOnUse" x="-517.162" y="93.225" width="496.945" height="53.979">
			
				<feColorMatrix  type="matrix" values="-1 0 0 0 1  0 -1 0 0 1  0 0 -1 0 1  0 0 0 1 0" color-interpolation-filters="sRGB" result="source"/>
		</filter>
	</defs>
	<mask maskUnits="userSpaceOnUse" x="-517.162" y="93.225" width="496.945" height="53.979" id="SVGID_7_">
		<g filter="url(#Adobe_OpacityMaskFilter_1_)">
			<g>
				<linearGradient id="SVGID_8_" gradientUnits="userSpaceOnUse" x1="-371.1431" y1="132.9966" x2="-371.1431" y2="94.5024">
					<stop  offset="0.27" style="stop-color:#FFFFFF"/>
					<stop  offset="0.3885" style="stop-color:#FCFCFC"/>
					<stop  offset="0.4838" style="stop-color:#F2F2F2"/>
					<stop  offset="0.5709" style="stop-color:#E1E1E1"/>
					<stop  offset="0.6532" style="stop-color:#C9C9C9"/>
					<stop  offset="0.7322" style="stop-color:#AAAAAA"/>
					<stop  offset="0.8087" style="stop-color:#848484"/>
					<stop  offset="0.8831" style="stop-color:#585858"/>
					<stop  offset="0.9541" style="stop-color:#252525"/>
					<stop  offset="1" style="stop-color:#000000"/>
				</linearGradient>
				<path fill="url(#SVGID_8_)" d="M-380.464,117.901c0.458,2.623,1.703,4.426,3.767,5.406c2.054,0.975,5.61,1.465,10.672,1.465
					h24.738v8.225h-26.096c-6.775,0-12.241-0.504-16.401-1.502c-4.155-1.006-7.725-2.693-10.706-5.063
					c-4.341-3.447-6.509-7.514-6.509-12.201c0-7.156,4.087-12.535,12.271-16.137c3.029-1.314,6.223-2.24,9.585-2.783
					c3.374-0.537,7.741-0.809,13.118-0.809h24.738v8.225h-22.707c-5.604,0-9.656,0.525-12.161,1.582
					c-2.508,1.055-3.948,2.846-4.309,5.369h39.177v8.223H-380.464z"/>
				<linearGradient id="SVGID_9_" gradientUnits="userSpaceOnUse" x1="-278.4116" y1="132.9966" x2="-278.4116" y2="94.5024">
					<stop  offset="0.27" style="stop-color:#FFFFFF"/>
					<stop  offset="0.3885" style="stop-color:#FCFCFC"/>
					<stop  offset="0.4838" style="stop-color:#F2F2F2"/>
					<stop  offset="0.5709" style="stop-color:#E1E1E1"/>
					<stop  offset="0.6532" style="stop-color:#C9C9C9"/>
					<stop  offset="0.7322" style="stop-color:#AAAAAA"/>
					<stop  offset="0.8087" style="stop-color:#848484"/>
					<stop  offset="0.8831" style="stop-color:#585858"/>
					<stop  offset="0.9541" style="stop-color:#252525"/>
					<stop  offset="1" style="stop-color:#000000"/>
				</linearGradient>
				<path fill="url(#SVGID_9_)" d="M-309.859,94.502h18.575v30.27h16.193c3.391,0,5.828-0.414,7.322-1.256
					c1.489-0.834,2.233-2.205,2.233-4.109V94.502h18.571v23.707c0,5.355-2.375,9.254-7.118,11.699
					c-2.254,1.184-4.815,1.996-7.659,2.432c-2.845,0.439-6.929,0.656-12.268,0.656h-35.851V94.502z"/>
				<linearGradient id="SVGID_10_" gradientUnits="userSpaceOnUse" x1="-192.5356" y1="132.9966" x2="-192.5356" y2="94.5024">
					<stop  offset="0.27" style="stop-color:#FFFFFF"/>
					<stop  offset="0.3885" style="stop-color:#FCFCFC"/>
					<stop  offset="0.4838" style="stop-color:#F2F2F2"/>
					<stop  offset="0.5709" style="stop-color:#E1E1E1"/>
					<stop  offset="0.6532" style="stop-color:#C9C9C9"/>
					<stop  offset="0.7322" style="stop-color:#AAAAAA"/>
					<stop  offset="0.8087" style="stop-color:#848484"/>
					<stop  offset="0.8831" style="stop-color:#585858"/>
					<stop  offset="0.9541" style="stop-color:#252525"/>
					<stop  offset="1" style="stop-color:#000000"/>
				</linearGradient>
				<path fill="url(#SVGID_10_)" d="M-187.493,132.997c-6.184,0-11.223-0.289-15.107-0.865c-3.885-0.586-7.205-1.553-9.959-2.918
					c-6.96-3.398-10.441-8.518-10.441-15.367c0-5.66,2.896-10.334,8.675-14.018c3.122-1.98,6.667-3.363,10.642-4.15
					c3.975-0.783,9.375-1.176,16.191-1.176h25.423v8.225h-20.062c-3.879,0-6.914,0.141-9.079,0.424
					c-2.174,0.283-4.181,0.811-6.036,1.582c-4.516,1.854-6.774,4.852-6.774,8.998c0,3.654,1.379,6.383,4.131,8.186
					c2.939,1.904,8.112,2.855,15.524,2.855h22.296v8.225H-187.493z"/>
				<linearGradient id="SVGID_11_" gradientUnits="userSpaceOnUse" x1="-81.5273" y1="132.9966" x2="-81.5273" y2="93.2251">
					<stop  offset="0.27" style="stop-color:#FFFFFF"/>
					<stop  offset="0.3885" style="stop-color:#FCFCFC"/>
					<stop  offset="0.4838" style="stop-color:#F2F2F2"/>
					<stop  offset="0.5709" style="stop-color:#E1E1E1"/>
					<stop  offset="0.6532" style="stop-color:#C9C9C9"/>
					<stop  offset="0.7322" style="stop-color:#AAAAAA"/>
					<stop  offset="0.8087" style="stop-color:#848484"/>
					<stop  offset="0.8831" style="stop-color:#585858"/>
					<stop  offset="0.9541" style="stop-color:#252525"/>
					<stop  offset="1" style="stop-color:#000000"/>
				</linearGradient>
				<path fill="url(#SVGID_11_)" d="M-20.217,124.772h-56.884c3.828-3.402,5.763-7.463,5.763-12.201
					c0-6.023-3.434-10.822-10.296-14.4c-6.284-3.295-14.893-4.945-25.827-4.945c-11.295,0-20.154,1.844-26.563,5.525
					c-5.877,3.371-8.814,8.225-8.814,14.555c0,5.408,2.822,9.898,8.477,13.475c6.146,3.906,14.974,5.926,26.443,6.082v0.135h87.701
					V124.772z M-107.052,124.772c-11.164,0-16.738-3.949-16.738-11.85c0-3.221,0.903-5.666,2.711-7.34
					c3.027-2.832,7.749-4.244,14.16-4.244c11.03,0,16.538,3.924,16.538,11.775C-90.381,120.811-95.942,124.696-107.052,124.772z"/>
				<linearGradient id="SVGID_12_" gradientUnits="userSpaceOnUse" x1="-470.8057" y1="147.2036" x2="-470.8057" y2="94.5024">
					<stop  offset="0.27" style="stop-color:#FFFFFF"/>
					<stop  offset="0.3885" style="stop-color:#FCFCFC"/>
					<stop  offset="0.4838" style="stop-color:#F2F2F2"/>
					<stop  offset="0.5709" style="stop-color:#E1E1E1"/>
					<stop  offset="0.6532" style="stop-color:#C9C9C9"/>
					<stop  offset="0.7322" style="stop-color:#AAAAAA"/>
					<stop  offset="0.8087" style="stop-color:#848484"/>
					<stop  offset="0.8831" style="stop-color:#585858"/>
					<stop  offset="0.9541" style="stop-color:#252525"/>
					<stop  offset="1" style="stop-color:#000000"/>
				</linearGradient>
				<path fill="url(#SVGID_12_)" d="M-424.449,124.772v8.225h-17.215v14.207h-18.573v-14.207h-56.925v-8.225h56.925v-15.828
					c0-5.201,1.702-8.908,5.118-11.123c3.41-2.211,9.135-3.318,17.178-3.318h13.492v8.225h-7.321c-3.976,0-6.759,0.633-8.337,1.893
					c-1.045,0.85-1.557,2.91-1.557,6.178v13.975H-424.449z"/>
			</g>
		</g>
	</mask>
	<g opacity="0.77" mask="url(#SVGID_7_)">
		<path fill="#2A2D41" d="M-380.464,117.901c0.458,2.623,1.703,4.426,3.767,5.406c2.054,0.975,5.61,1.465,10.672,1.465h24.738v8.225
			h-26.096c-6.775,0-12.241-0.504-16.401-1.502c-4.155-1.006-7.725-2.693-10.706-5.063c-4.341-3.447-6.509-7.514-6.509-12.201
			c0-7.156,4.087-12.535,12.271-16.137c3.029-1.314,6.223-2.24,9.585-2.783c3.374-0.537,7.741-0.809,13.118-0.809h24.738v8.225
			h-22.707c-5.604,0-9.656,0.525-12.161,1.582c-2.508,1.055-3.948,2.846-4.309,5.369h39.177v8.223H-380.464z"/>
		<path fill="#2A2D41" d="M-309.859,94.502h18.575v30.27h16.193c3.391,0,5.828-0.414,7.322-1.256
			c1.489-0.834,2.233-2.205,2.233-4.109V94.502h18.571v23.707c0,5.355-2.375,9.254-7.118,11.699
			c-2.254,1.184-4.815,1.996-7.659,2.432c-2.845,0.439-6.929,0.656-12.268,0.656h-35.851V94.502z"/>
		<path fill="#2A2D41" d="M-187.493,132.997c-6.184,0-11.223-0.289-15.107-0.865c-3.885-0.586-7.205-1.553-9.959-2.918
			c-6.96-3.398-10.441-8.518-10.441-15.367c0-5.66,2.896-10.334,8.675-14.018c3.122-1.98,6.667-3.363,10.642-4.15
			c3.975-0.783,9.375-1.176,16.191-1.176h25.423v8.225h-20.062c-3.879,0-6.914,0.141-9.079,0.424
			c-2.174,0.283-4.181,0.811-6.036,1.582c-4.516,1.854-6.774,4.852-6.774,8.998c0,3.654,1.379,6.383,4.131,8.186
			c2.939,1.904,8.112,2.855,15.524,2.855h22.296v8.225H-187.493z"/>
		<path fill="#2A2D41" d="M-20.217,124.772h-56.884c3.828-3.402,5.763-7.463,5.763-12.201c0-6.023-3.434-10.822-10.296-14.4
			c-6.284-3.295-14.893-4.945-25.827-4.945c-11.295,0-20.154,1.844-26.563,5.525c-5.877,3.371-8.814,8.225-8.814,14.555
			c0,5.408,2.822,9.898,8.477,13.475c6.146,3.906,14.974,5.926,26.443,6.082v0.135h87.701V124.772z M-107.052,124.772
			c-11.164,0-16.738-3.949-16.738-11.85c0-3.221,0.903-5.666,2.711-7.34c3.027-2.832,7.749-4.244,14.16-4.244
			c11.03,0,16.538,3.924,16.538,11.775C-90.381,120.811-95.942,124.696-107.052,124.772z"/>
		<path fill="#2A2D41" d="M-424.449,124.772v8.225h-17.215v14.207h-18.573v-14.207h-56.925v-8.225h56.925v-15.828
			c0-5.201,1.702-8.908,5.118-11.123c3.41-2.211,9.135-3.318,17.178-3.318h13.492v8.225h-7.321c-3.976,0-6.759,0.633-8.337,1.893
			c-1.045,0.85-1.557,2.91-1.557,6.178v13.975H-424.449z"/>
	</g>
</g>
</svg>
