<?xml version="1.0" encoding="utf-8"?>
<!-- Generator: Adobe Illustrator 16.0.0, SVG Export Plug-In . SVG Version: 6.00 Build 0)  -->
<!DOCTYPE svg PUBLIC "-//W3C//DTD SVG 1.1//EN" "http://www.w3.org/Graphics/SVG/1.1/DTD/svg11.dtd">
<svg version="1.1" id="Layer_1" xmlns="http://www.w3.org/2000/svg" xmlns:xlink="http://www.w3.org/1999/xlink" x="0px" y="0px"
	 width="500px" height="148.275px" viewBox="0 0 500 148.275" enable-background="new 0 0 500 148.275" xml:space="preserve">
<g>
	<g>
		<path fill="#2A2D41" d="M177.402,52.508v14.434h-39.177c0.36,4.432,1.801,7.572,4.309,9.428c2.505,1.853,6.558,2.774,12.161,2.774
			h22.707v14.438h-24.738c-5.377,0-9.744-0.478-13.118-1.42c-3.362-0.955-6.556-2.578-9.585-4.886
			c-8.184-6.32-12.271-15.764-12.271-28.325c0-8.228,2.168-15.364,6.509-21.417c2.981-4.158,6.551-7.119,10.706-8.884
			c4.16-1.758,9.626-2.64,16.401-2.64h26.096v14.436h-24.738c-5.062,0-8.618,0.86-10.672,2.573
			c-2.063,1.721-3.309,4.883-3.767,9.489H177.402z"/>
		<path fill="#2A2D41" d="M208.83,26.01h35.851c5.339,0,9.422,0.383,12.268,1.151c2.844,0.768,5.404,2.192,7.658,4.269
			c4.744,4.294,7.119,11.139,7.119,20.537v41.614h-18.571V49.866c0-3.347-0.744-5.749-2.233-7.217
			c-1.494-1.476-3.932-2.205-7.322-2.205h-16.193V93.58H208.83V26.01z"/>
		<path fill="#2A2D41" d="M356.619,26.01v14.436h-22.296c-7.412,0-12.585,1.673-15.524,5.015c-2.752,3.165-4.131,7.953-4.131,14.368
			c0,7.275,2.259,12.538,6.773,15.793c1.855,1.355,3.863,2.278,6.037,2.778c2.164,0.496,5.199,0.743,9.078,0.743h20.063V93.58
			h-25.424c-6.815,0-12.217-0.688-16.19-2.067c-3.976-1.38-7.521-3.807-10.642-7.285c-5.779-6.465-8.676-14.666-8.676-24.602
			c0-12.024,3.481-21.011,10.441-26.978c2.754-2.394,6.074-4.096,9.959-5.12c3.885-1.012,8.924-1.521,15.107-1.521h25.424V26.01z"/>
		<path fill="#2A2D41" d="M498.473,26.01h-87.701v0.238c-11.47,0.275-20.297,3.815-26.442,10.674
			c-5.654,6.281-8.478,14.163-8.478,23.654c0,11.108,2.938,19.633,8.814,25.548c6.408,6.463,15.268,9.697,26.563,9.697
			c10.936,0,19.543-2.895,25.827-8.682c6.862-6.277,10.296-14.703,10.296-25.274c0-8.316-1.935-15.444-5.763-21.417h56.884V26.01z
			 M428.309,60.912c0,13.779-5.508,20.67-16.537,20.67c-6.411,0-11.134-2.48-14.16-7.45c-1.809-2.938-2.711-7.232-2.711-12.884
			c0-13.866,5.573-20.803,16.737-20.803C422.747,40.58,428.309,47.402,428.309,60.912z"/>
		<path fill="#2A2D41" d="M94.24,40.446V26.01H77.025V1.071H58.452V26.01H1.527v14.436h56.925V68.23
			c0,9.134,1.702,15.638,5.118,19.523c3.41,3.884,9.135,5.827,17.178,5.827H94.24V79.144h-7.321c-3.976,0-6.759-1.105-8.337-3.323
			c-1.045-1.488-1.557-5.104-1.557-10.843V40.446H94.24z"/>
	</g>
	<defs>
		<filter id="Adobe_OpacityMaskFilter" filterUnits="userSpaceOnUse" x="1.527" y="93.226" width="496.946" height="53.979">
			<feColorMatrix  type="matrix" values="1 0 0 0 0  0 1 0 0 0  0 0 1 0 0  0 0 0 1 0"/>
		</filter>
	</defs>
	<mask maskUnits="userSpaceOnUse" x="1.527" y="93.226" width="496.946" height="53.979" id="SVGID_7_">
		<g filter="url(#Adobe_OpacityMaskFilter)">
			<g>
				
					<linearGradient id="SVGID_1_" gradientUnits="userSpaceOnUse" x1="31.5464" y1="10.2791" x2="31.5464" y2="48.7742" gradientTransform="matrix(1 0 0 -1 116 143.2759)">
					<stop  offset="0.27" style="stop-color:#FFFFFF"/>
					<stop  offset="0.3885" style="stop-color:#FCFCFC"/>
					<stop  offset="0.4838" style="stop-color:#F2F2F2"/>
					<stop  offset="0.5709" style="stop-color:#E1E1E1"/>
					<stop  offset="0.6532" style="stop-color:#C9C9C9"/>
					<stop  offset="0.7322" style="stop-color:#AAAAAA"/>
					<stop  offset="0.8087" style="stop-color:#848484"/>
					<stop  offset="0.8831" style="stop-color:#585858"/>
					<stop  offset="0.9541" style="stop-color:#252525"/>
					<stop  offset="1" style="stop-color:#000000"/>
				</linearGradient>
				<path fill="url(#SVGID_1_)" d="M138.226,117.901c0.458,2.623,1.703,4.427,3.767,5.406c2.054,0.976,5.61,1.465,10.672,1.465
					h24.738v8.226h-26.096c-6.775,0-12.241-0.504-16.401-1.502c-4.155-1.006-7.725-2.693-10.706-5.063
					c-4.341-3.447-6.509-7.514-6.509-12.201c0-7.155,4.087-12.535,12.271-16.137c3.029-1.314,6.223-2.24,9.585-2.783
					c3.374-0.537,7.741-0.809,13.118-0.809h24.738v8.225h-22.707c-5.604,0-9.656,0.525-12.161,1.582
					c-2.508,1.055-3.948,2.846-4.309,5.369h39.177v8.223H138.226z"/>
				
					<linearGradient id="SVGID_2_" gradientUnits="userSpaceOnUse" x1="124.2769" y1="10.28" x2="124.2769" y2="48.7742" gradientTransform="matrix(1 0 0 -1 116 143.2759)">
					<stop  offset="0.27" style="stop-color:#FFFFFF"/>
					<stop  offset="0.3885" style="stop-color:#FCFCFC"/>
					<stop  offset="0.4838" style="stop-color:#F2F2F2"/>
					<stop  offset="0.5709" style="stop-color:#E1E1E1"/>
					<stop  offset="0.6532" style="stop-color:#C9C9C9"/>
					<stop  offset="0.7322" style="stop-color:#AAAAAA"/>
					<stop  offset="0.8087" style="stop-color:#848484"/>
					<stop  offset="0.8831" style="stop-color:#585858"/>
					<stop  offset="0.9541" style="stop-color:#252525"/>
					<stop  offset="1" style="stop-color:#000000"/>
				</linearGradient>
				<path fill="url(#SVGID_2_)" d="M208.83,94.502h18.575v30.27h16.193c3.391,0,5.828-0.414,7.322-1.256
					c1.489-0.834,2.232-2.205,2.232-4.108V94.502h18.572v23.707c0,5.354-2.375,9.254-7.119,11.699
					c-2.254,1.184-4.814,1.995-7.658,2.432c-2.846,0.438-6.929,0.656-12.268,0.656H208.83V94.502z"/>
				
					<linearGradient id="SVGID_3_" gradientUnits="userSpaceOnUse" x1="210.1548" y1="10.2781" x2="210.1548" y2="48.7732" gradientTransform="matrix(1 0 0 -1 116 143.2759)">
					<stop  offset="0.27" style="stop-color:#FFFFFF"/>
					<stop  offset="0.3885" style="stop-color:#FCFCFC"/>
					<stop  offset="0.4838" style="stop-color:#F2F2F2"/>
					<stop  offset="0.5709" style="stop-color:#E1E1E1"/>
					<stop  offset="0.6532" style="stop-color:#C9C9C9"/>
					<stop  offset="0.7322" style="stop-color:#AAAAAA"/>
					<stop  offset="0.8087" style="stop-color:#848484"/>
					<stop  offset="0.8831" style="stop-color:#585858"/>
					<stop  offset="0.9541" style="stop-color:#252525"/>
					<stop  offset="1" style="stop-color:#000000"/>
				</linearGradient>
				<path fill="url(#SVGID_3_)" d="M331.195,132.997c-6.184,0-11.223-0.289-15.106-0.865c-3.885-0.586-7.205-1.553-9.959-2.918
					c-6.96-3.398-10.44-8.519-10.44-15.367c0-5.66,2.896-10.334,8.674-14.018c3.123-1.98,6.668-3.363,10.643-4.15
					c3.975-0.783,9.375-1.176,16.191-1.176h25.423v8.225h-20.062c-3.879,0-6.914,0.142-9.08,0.424
					c-2.174,0.283-4.181,0.812-6.035,1.582c-4.517,1.854-6.774,4.853-6.774,8.998c0,3.654,1.379,6.384,4.131,8.187
					c2.938,1.903,8.112,2.854,15.524,2.854h22.296v8.226L331.195,132.997L331.195,132.997z"/>
				
					<linearGradient id="SVGID_4_" gradientUnits="userSpaceOnUse" x1="321.1631" y1="10.2781" x2="321.1631" y2="50.0505" gradientTransform="matrix(1 0 0 -1 116 143.2759)">
					<stop  offset="0.27" style="stop-color:#FFFFFF"/>
					<stop  offset="0.3885" style="stop-color:#FCFCFC"/>
					<stop  offset="0.4838" style="stop-color:#F2F2F2"/>
					<stop  offset="0.5709" style="stop-color:#E1E1E1"/>
					<stop  offset="0.6532" style="stop-color:#C9C9C9"/>
					<stop  offset="0.7322" style="stop-color:#AAAAAA"/>
					<stop  offset="0.8087" style="stop-color:#848484"/>
					<stop  offset="0.8831" style="stop-color:#585858"/>
					<stop  offset="0.9541" style="stop-color:#252525"/>
					<stop  offset="1" style="stop-color:#000000"/>
				</linearGradient>
				<path fill="url(#SVGID_4_)" d="M498.473,124.772h-56.884c3.828-3.401,5.763-7.463,5.763-12.201
					c0-6.022-3.434-10.821-10.296-14.399c-6.284-3.295-14.893-4.945-25.827-4.945c-11.295,0-20.153,1.844-26.563,5.525
					c-5.877,3.371-8.814,8.225-8.814,14.555c0,5.408,2.822,9.898,8.478,13.476c6.146,3.905,14.974,5.926,26.442,6.081v0.136h87.701
					V124.772z M411.638,124.772c-11.164,0-16.737-3.948-16.737-11.85c0-3.221,0.902-5.666,2.711-7.34
					c3.026-2.832,7.749-4.244,14.16-4.244c11.029,0,16.537,3.924,16.537,11.774C428.309,120.811,422.747,124.696,411.638,124.772z"
					/>
				
					<linearGradient id="SVGID_5_" gradientUnits="userSpaceOnUse" x1="-68.1167" y1="-3.928" x2="-68.1167" y2="48.7732" gradientTransform="matrix(1 0 0 -1 116 143.2759)">
					<stop  offset="0.27" style="stop-color:#FFFFFF"/>
					<stop  offset="0.3885" style="stop-color:#FCFCFC"/>
					<stop  offset="0.4838" style="stop-color:#F2F2F2"/>
					<stop  offset="0.5709" style="stop-color:#E1E1E1"/>
					<stop  offset="0.6532" style="stop-color:#C9C9C9"/>
					<stop  offset="0.7322" style="stop-color:#AAAAAA"/>
					<stop  offset="0.8087" style="stop-color:#848484"/>
					<stop  offset="0.8831" style="stop-color:#585858"/>
					<stop  offset="0.9541" style="stop-color:#252525"/>
					<stop  offset="1" style="stop-color:#000000"/>
				</linearGradient>
				<path fill="url(#SVGID_5_)" d="M94.24,124.772v8.226H77.025v14.207H58.452v-14.207H1.527v-8.226h56.925v-15.828
					c0-5.2,1.702-8.907,5.118-11.123c3.41-2.211,9.135-3.317,17.178-3.317H94.24v8.225h-7.321c-3.976,0-6.759,0.633-8.337,1.894
					c-1.045,0.85-1.557,2.91-1.557,6.178v13.975H94.24V124.772z"/>
			</g>
		</g>
	</mask>
	<g opacity="0.77" mask="url(#SVGID_7_)">
		<path fill="#2A2D41" d="M138.226,117.901c0.458,2.623,1.703,4.427,3.767,5.406c2.054,0.976,5.61,1.465,10.672,1.465h24.738v8.226
			h-26.096c-6.775,0-12.241-0.504-16.401-1.502c-4.155-1.006-7.725-2.693-10.706-5.063c-4.341-3.447-6.509-7.514-6.509-12.201
			c0-7.155,4.087-12.535,12.271-16.137c3.029-1.314,6.223-2.24,9.585-2.783c3.374-0.537,7.741-0.809,13.118-0.809h24.738v8.225
			h-22.707c-5.604,0-9.656,0.525-12.161,1.582c-2.508,1.055-3.948,2.846-4.309,5.369h39.177v8.223H138.226z"/>
		<path fill="#2A2D41" d="M208.83,94.502h18.575v30.27h16.193c3.391,0,5.828-0.414,7.322-1.256c1.489-0.834,2.232-2.205,2.232-4.108
			V94.502h18.572v23.707c0,5.354-2.375,9.254-7.119,11.699c-2.254,1.184-4.814,1.995-7.658,2.432
			c-2.846,0.438-6.929,0.656-12.268,0.656H208.83V94.502z"/>
		<path fill="#2A2D41" d="M331.195,132.997c-6.184,0-11.223-0.289-15.106-0.865c-3.885-0.586-7.205-1.553-9.959-2.918
			c-6.96-3.398-10.44-8.519-10.44-15.367c0-5.66,2.896-10.334,8.674-14.018c3.123-1.98,6.668-3.363,10.643-4.15
			c3.975-0.783,9.375-1.176,16.191-1.176h25.423v8.225h-20.062c-3.879,0-6.914,0.142-9.08,0.424
			c-2.174,0.283-4.181,0.812-6.035,1.582c-4.517,1.854-6.774,4.853-6.774,8.998c0,3.654,1.379,6.384,4.131,8.187
			c2.938,1.903,8.112,2.854,15.524,2.854h22.296v8.226L331.195,132.997L331.195,132.997z"/>
		<path fill="#2A2D41" d="M498.473,124.772h-56.884c3.828-3.401,5.763-7.463,5.763-12.201c0-6.022-3.434-10.821-10.296-14.399
			c-6.284-3.295-14.893-4.945-25.827-4.945c-11.295,0-20.153,1.844-26.563,5.525c-5.877,3.371-8.814,8.225-8.814,14.555
			c0,5.408,2.822,9.898,8.478,13.476c6.146,3.905,14.974,5.926,26.442,6.081v0.136h87.701V124.772z M411.638,124.772
			c-11.164,0-16.737-3.948-16.737-11.85c0-3.221,0.902-5.666,2.711-7.34c3.026-2.832,7.749-4.244,14.16-4.244
			c11.029,0,16.537,3.924,16.537,11.774C428.309,120.811,422.747,124.696,411.638,124.772z"/>
		<path fill="#2A2D41" d="M94.24,124.772v8.226H77.025v14.207H58.452v-14.207H1.527v-8.226h56.925v-15.828
			c0-5.2,1.702-8.907,5.118-11.123c3.41-2.211,9.135-3.317,17.178-3.317H94.24v8.225h-7.321c-3.976,0-6.759,0.633-8.337,1.894
			c-1.045,0.85-1.557,2.91-1.557,6.178v13.975H94.24V124.772z"/>
	</g>
</g>
</svg>
