<?xml version="1.0" encoding="utf-8"?>
<!-- Generator: Adobe Illustrator 16.0.0, SVG Export Plug-In . SVG Version: 6.00 Build 0)  -->
<!DOCTYPE svg PUBLIC "-//W3C//DTD SVG 1.1//EN" "http://www.w3.org/Graphics/SVG/1.1/DTD/svg11.dtd">
<svg version="1.1" id="Layer_1" xmlns="http://www.w3.org/2000/svg" xmlns:xlink="http://www.w3.org/1999/xlink" x="0px" y="0px"
	 width="37px" height="37px" viewBox="0 0 37 37" enable-background="new 0 0 37 37" xml:space="preserve">
<g>
	<path fill="#87DC0F" d="M18.5,37C8.299,37,0,28.701,0,18.5S8.299,0,18.5,0S37,8.299,37,18.5S28.701,37,18.5,37z M18.5,2
		C9.402,2,2,9.402,2,18.5C2,27.599,9.402,35,18.5,35S35,27.599,35,18.5C35,9.402,27.598,2,18.5,2z"/>
	<path fill="#87DC0F" d="M24.678,24.66L24.678,24.66H20.88v-0.02h-2.273v-0.002c-0.018,0-0.024,0.002-0.038,0.002
		c-1.563,0-2.84-1.273-2.84-2.842c0-0.036,0.006-0.074,0.006-0.109h-0.011v-3.129h8.954c1.754,0,3.174-1.42,3.174-3.17
		c0-1.752-1.42-3.17-3.174-3.17h-8.954V9.288C15.724,7.474,14.257,6,12.436,6c-1.813,0-3.287,1.474-3.287,3.288v12.401
		c0,5.014,3.963,9.1,8.928,9.299V31h0.38h0.005c0,0,0.004,0,0.008,0h6.209l0,0c1.754,0,3.174-1.42,3.174-3.17
		S26.432,24.66,24.678,24.66z"/>
</g>
</svg>
